PathFileType	4	(X/Y/Z)	C:/Users/opensim2020/Desktop/walking_exp_matlab/subject06_walking18_straight_03.trc																																																																																																																																											
DataRate	CameraRate	NumFrames	NumMarkers	Units	OrigDataRate	OrigDataStartFrame	OrigNumFrames																																																																																																																																							
100	100	8	47	mm	100	3585	309																																																																																																																																							
Frame#	Time	LFHD			RFHD			LBHD			RBHD			C7			T10			CLAV			STRN			RBAK			LSHO			LUPA			LELB			LFRM			LWRA			LWRB			LFIN			RSHO			RUPA			RELB			RFRM			RWRA			RWRB			RFIN			LASI			RASI			LPSI			RPSI			LTHI			LKNE			LTIB			LANK			LHEE			LTOE			RTHI			RKNE			RTIB			RANK			RHEE			RTOE			*39			*40			*41			*42			*43			*44			*45			*46		
		X1	Y1	Z1	X2	Y2	Z2	X3	Y3	Z3	X4	Y4	Z4	X5	Y5	Z5	X6	Y6	Z6	X7	Y7	Z7	X8	Y8	Z8	X9	Y9	Z9	X10	Y10	Z10	X11	Y11	Z11	X12	Y12	Z12	X13	Y13	Z13	X14	Y14	Z14	X15	Y15	Z15	X16	Y16	Z16	X17	Y17	Z17	X18	Y18	Z18	X19	Y19	Z19	X20	Y20	Z20	X21	Y21	Z21	X22	Y22	Z22	X23	Y23	Z23	X24	Y24	Z24	X25	Y25	Z25	X26	Y26	Z26	X27	Y27	Z27	X28	Y28	Z28	X29	Y29	Z29	X30	Y30	Z30	X31	Y31	Z31	X32	Y32	Z32	X33	Y33	Z33	X34	Y34	Z34	X35	Y35	Z35	X36	Y36	Z36	X37	Y37	Z37	X38	Y38	Z38	X39	Y39	Z39	X40	Y40	Z40	X41	Y41	Z41	X42	Y42	Z42	X43	Y43	Z43	X44	Y44	Z44	X45	Y45	Z45	X46	Y46	Z46	X47	Y47	Z47
																																																																																																																																														
271	2.7	974.81091	1660.11304	1367.29651	976.82935	1650.26794	1498.75415	841.60645	1605.26074	1368.71997	844.9621	1600.36414	1498.50854	842.98547	1446.90051	1425.98901	815.26581	1117.72729	1437.15039	953.75647	1371.3114	1428.03699	995.87457	1197.16528	1426.43494	771.94336	1276.92786	1509.51855	898.30975	1399.28564	1265.04456	872.3421	1198.12341	1197.56909	851.33459	1087.76318	1189.03137	858.83704	937.14526	1166.95227	909.8017	817.27081	1206.56946	848.84808	818.56018	1170.99475	880.75012	732.88129	1170.54602	908.32794	1406.04993	1587.80725	882.49976	1206.41931	1676.94189	903.09357	1086.57068	1688.52588	949.61945	975.8125	1700.10107	1050.25708	866.71295	1662.9762	996.91895	846.51508	1696.86426	1055.58142	786.26257	1696.91614	1003.17438	965.2876	1335.29285	989.17615	961.97375	1554.69177	843.24158	989.13019	1353.55542	838.16992	987.61133	1521.20947	963.5462	651.02972	1263.78845	983.20801	490.28543	1289.07239	997.83527	234.56966	1299.1095	1030.92566	66.78139	1345.30188	997.81366	54.15442	1397.42371	1176.44348	44.54637	1334.59473	902.56879	625.92822	1604.80383	890.50446	499.03192	1591.11829	709.6554	298.3598	1584.51184	592.17194	152.12323	1539.63928	549.12683	155.64345	1494.01685	692.06372	36.54812	1527.69702	875.13519	1698.37268	1427.19739	NaN	NaN	NaN	NaN	NaN	NaN	NaN	NaN	NaN	NaN	NaN	NaN	NaN	NaN	NaN	NaN	NaN	NaN	NaN	NaN	NaN
272	2.71	981.91034	1660.84778	1365.64832	983.71088	1651.08557	1496.96301	848.70294	1606.00208	1366.80896	851.84247	1601.20886	1496.57239	850.09613	1447.65845	1424.17603	822.65045	1118.60974	1434.93115	960.81061	1372.11707	1426.23792	1002.89325	1197.99744	1424.64417	779.47363	1278.20227	1508.44019	905.91217	1400.30225	1263.54639	881.0639	1198.90759	1195.70044	861.04871	1088.44031	1186.65332	870.38324	937.94421	1164.6554	921.74164	818.52026	1205.23523	861.06696	819.23999	1168.80701	893.59607	733.9165	1168.95618	915.54932	1406.93518	1585.87842	889.85803	1207.53345	1675.32593	909.39862	1087.36218	1686.45007	954.70264	976.13916	1698.51575	1053.97961	865.54742	1661.76404	1000.14746	846.0932	1695.60632	1058.1936	784.99988	1695.91028	1010.11462	965.90582	1332.99597	996.10248	963.22736	1552.32642	850.23352	989.73334	1351.44763	844.97357	988.4043	1519.10449	968.81232	651.31067	1262.68396	986.63116	490.26105	1287.88684	998.67999	234.43045	1299.59204	1031.38708	66.80562	1345.74487	998.133	54.41868	1397.88928	1176.84985	43.96108	1334.74219	913.93347	626.32275	1604.38843	904.07269	499.03391	1591.30579	721.4295	301.51285	1584.73047	600.41919	158.36913	1540.11218	557.82947	163.85744	1494.20276	694.03479	37.67104	1527.9574	882.14331	1699.14771	1425.23181	NaN	NaN	NaN	NaN	NaN	NaN	NaN	NaN	NaN	NaN	NaN	NaN	NaN	NaN	NaN	NaN	NaN	NaN	NaN	NaN	NaN
273	2.72	988.89087	1661.37427	1363.81421	990.53387	1651.81384	1495.1377	855.68256	1606.64441	1364.9071	858.70349	1601.93079	1494.70654	857.28113	1448.34338	1422.58801	829.09991	1119.45813	1432.78735	967.81183	1372.78345	1424.48584	1009.88141	1198.69373	1422.79858	786.21191	1278.948	1506.29248	912.99969	1401.0603	1261.78674	889.66248	1199.74573	1193.4668	870.6839	1089.08423	1184.21692	881.62347	938.70892	1162.5802	933.93652	819.85431	1203.70142	873.8656	819.86212	1166.53638	907.38812	735.00116	1167.00696	922.6803	1407.59119	1583.9668	897.13904	1208.3927	1673.79968	915.80084	1088.07361	1684.73291	959.78638	976.2309	1696.94812	1057.5968	864.16327	1660.42053	1003.55469	845.55859	1694.53857	1060.77771	783.64667	1694.84766	1016.59998	966.15045	1331.06384	1002.69788	964.39862	1550.28064	857.27679	990.34161	1349.29688	851.42255	988.95526	1516.84033	973.50714	651.57782	1261.89429	989.64587	490.17996	1286.70166	999.24738	234.29903	1300.0188	1031.75928	66.7872	1346.16553	998.61359	54.42494	1398.15698	1177.14868	43.46471	1334.81519	925.2334	626.61145	1603.98169	917.8877	499.20142	1591.88098	733.60785	304.51328	1585.04407	609.08643	164.69832	1540.74353	566.67676	172.00206	1494.79053	696.54987	39.53824	1527.46509	889.08966	1699.83411	1423.3136	NaN	NaN	NaN	NaN	NaN	NaN	NaN	NaN	NaN	NaN	NaN	NaN	NaN	NaN	NaN	NaN	NaN	NaN	NaN	NaN	NaN
274	2.73	995.55664	1661.83936	1361.88733	997.33618	1652.41187	1493.5061	862.69061	1607.09448	1363.10974	865.50433	1602.51416	1492.88965	864.10901	1448.87317	1420.70581	835.73529	1119.9895	1430.60767	974.8194	1373.46753	1422.92725	1016.80707	1199.23669	1421.01563	793.505	1279.68127	1504.91223	919.96686	1401.91162	1260.01489	898.01172	1200.51184	1191.1626	880.14429	1089.61536	1181.84875	893.04718	939.25574	1160.3512	946.23584	821.1037	1202.10046	886.63293	820.1908	1164.37512	921.27759	736.01831	1165.04688	929.70258	1408.03186	1582.18884	904.31519	1208.97095	1672.3092	922.20929	1088.52747	1683.04321	964.92133	976.18713	1695.54236	1061.14673	862.58807	1659.09338	1007.03204	844.89471	1693.58618	1063.57104	782.29742	1694.1106	1023.24841	966.25958	1329.30164	1008.9624	965.37305	1548.51746	863.87067	990.8573	1347.19226	857.65326	989.34247	1514.64587	978.22333	651.87708	1261.01453	992.40649	490.15213	1285.60339	1000.01794	234.21883	1300.14014	1032.02905	66.82455	1346.5166	998.74811	54.44656	1398.3103	1177.49915	43.04576	1335.00098	936.39832	626.80371	1603.45618	931.73126	499.03494	1591.60645	746.33704	307.31467	1585.302	618.14075	171.0757	1541.19055	575.73846	179.9921	1495.77295	701.31055	42.81314	1528.09631	895.91302	1700.37146	1421.43921	NaN	NaN	NaN	NaN	NaN	NaN	NaN	NaN	NaN	NaN	NaN	NaN	NaN	NaN	NaN	NaN	NaN	NaN	NaN	NaN	NaN
275	2.74	1002.53192	1662.33569	1360.20032	1004.06763	1652.95569	1491.81226	869.5246	1607.50195	1361.35547	872.28076	1603.00366	1491.20972	871.01581	1449.35107	1419.04053	842.40399	1120.40271	1428.49658	981.65149	1373.82251	1421.20532	1023.58313	1199.66589	1419.2146	799.90991	1279.85205	1502.49695	927.09515	1402.51233	1258.4574	906.49689	1201.10779	1188.80859	889.76001	1089.93774	1179.66479	904.23212	939.79279	1158.18811	958.77838	822.39716	1200.27637	899.30048	820.80695	1162.22144	935.21521	736.99774	1163.10767	936.5285	1408.29102	1580.45483	911.32324	1209.3053	1670.84961	928.72919	1088.74963	1681.54565	970.0592	975.90546	1694.18347	1064.64294	860.89459	1657.81348	1010.4848	844.03394	1692.67786	1065.93762	780.42316	1692.77405	1029.84412	966.29779	1327.7251	1015.00128	966.151	1547.07739	870.37244	991.24976	1345.24646	863.52362	989.49915	1512.65588	982.71954	652.08636	1260.15344	995.21094	490.18005	1284.52246	1001.14514	234.25308	1299.90088	1032.3374	66.79266	1346.75098	999.21326	54.4763	1398.45569	1177.82202	42.69541	1335.13672	947.36725	626.80438	1602.75586	945.42188	498.90652	1591.21216	759.43018	309.91077	1585.44189	627.62134	177.38596	1541.48364	585.17297	187.65823	1496.14917	706.74469	46.05143	1528.62805	902.73175	1700.81604	1419.67529	NaN	NaN	NaN	NaN	NaN	NaN	NaN	NaN	NaN	NaN	NaN	NaN	NaN	NaN	NaN	NaN	NaN	NaN	NaN	NaN	NaN
276	2.75	1009.37677	1662.73291	1358.64465	1010.77899	1653.40125	1490.24487	876.43115	1607.82349	1359.65063	879.04547	1603.3833	1489.50989	878.00604	1449.74194	1417.54028	848.72217	1120.78137	1426.26733	988.47821	1374.29431	1419.64893	1030.17957	1199.96289	1417.53638	806.88257	1280.20154	1500.85046	933.98376	1402.91748	1256.91589	914.43304	1201.48413	1186.9635	898.83282	1090.27893	1177.07825	915.54816	940.30133	1156.00684	971.49823	823.70258	1198.35071	912.25171	821.23505	1160.05737	949.3299	738.01733	1161.10071	943.25024	1408.39514	1578.87378	918.08508	1209.41101	1669.37598	935.03027	1088.79541	1680.0968	975.14349	975.479	1692.95435	1068.06567	859.10547	1656.57898	1013.89722	843.07227	1691.77429	1068.64856	778.84283	1691.85828	1036.26563	966.36426	1326.33923	1020.65045	966.52039	1545.71387	876.62677	991.57605	1343.58801	869.41473	989.50421	1510.96216	986.82501	652.427	1259.56165	998.17981	490.26862	1283.4447	1002.63379	234.30382	1299.35107	1032.74329	66.79645	1346.85339	999.39056	54.5052	1398.53003	1177.99084	42.33699	1335.25635	958.00531	626.78619	1601.89746	959.125	498.84631	1590.55859	772.66431	312.20761	1585.16064	637.60376	183.31337	1541.60632	595.43768	194.44536	1496.48071	713.67609	49.56136	1529.8512	909.45929	1701.18909	1417.9679	NaN	NaN	NaN	NaN	NaN	NaN	NaN	NaN	NaN	NaN	NaN	NaN	NaN	NaN	NaN	NaN	NaN	NaN	NaN	NaN	NaN
277	2.76	1016.23785	1663.14587	1357.35864	1017.41998	1653.82117	1488.73853	883.22064	1608.09717	1358.1051	885.75568	1603.71472	1487.94275	884.60321	1450.19263	1415.83887	855.44879	1120.91418	1424.49438	995.138	1374.55676	1418.09143	1036.64197	1200.17615	1415.86743	813.35382	1280.36951	1498.69824	940.78259	1403.47986	1255.16125	922.75616	1201.90039	1184.5614	908.1333	1090.41516	1174.7146	926.85663	940.72913	1153.77502	984.22418	824.99011	1196.3728	924.86133	821.40143	1158.15796	963.58905	739.02905	1158.99524	949.81592	1408.401	1577.36145	924.61487	1209.37305	1667.91345	941.2381	1088.63354	1678.62329	980.17242	974.94769	1691.69641	1071.44897	857.27118	1655.40271	1017.28467	842.10071	1691.0415	1071.1991	777.14325	1690.92358	1042.61084	966.42572	1325.05273	1026.66968	966.93909	1544.89087	882.74133	991.9129	1342.06274	875.34094	989.4303	1509.51428	991.36517	652.6972	1258.46521	1001.41064	490.42572	1282.31238	1004.18091	234.35637	1298.5658	1032.97278	66.70436	1346.89807	999.48273	54.63974	1398.51746	1178.1394	42.06252	1335.30457	968.51532	626.76819	1600.90735	972.6554	498.95621	1589.67993	785.82196	314.3447	1584.6792	648.03418	188.44852	1541.67249	605.96216	199.94382	1496.34595	721.93823	52.61172	1530.86682	916.14185	1701.52148	1416.38269	NaN	NaN	NaN	NaN	NaN	NaN	NaN	NaN	NaN	NaN	NaN	NaN	NaN	NaN	NaN	NaN	NaN	NaN	NaN	NaN	NaN
278	2.77	1022.7757	1663.52173	1355.68628	1024.14819	1654.23401	1487.37512	889.94366	1608.46033	1356.60535	892.43182	1604.04285	1486.45422	891.44769	1450.65027	1414.46033	861.45148	1121.32678	1422.72424	1001.70917	1374.8136	1416.53955	1042.94031	1200.32935	1414.29724	819.66565	1280.61841	1496.62634	947.50037	1403.86328	1253.63794	930.54352	1202.18921	1182.66296	917.38483	1090.57629	1172.45715	938.34467	941.11584	1151.46436	997.22119	826.31714	1194.20935	937.92731	821.8996	1156.07007	977.83881	740.17438	1156.93323	956.30646	1408.39319	1575.94995	930.8172	1209.29236	1666.40771	947.31128	1088.53137	1677.30286	985.05725	974.38275	1690.46838	1074.7312	855.4397	1654.26868	1020.56555	841.10144	1690.26965	1073.71387	775.51636	1690.16089	1048.68921	966.56445	1323.875	1032.48669	967.20654	1543.97412	888.57886	992.27881	1340.93396	881.21112	989.41333	1508.38354	995.73029	653.05829	1257.58887	1004.65582	490.64615	1281.16724	1005.88513	234.48381	1297.60583	1033.1604	66.70337	1346.81458	999.43689	54.89149	1398.45276	1178.49109	42.02293	1335.26599	978.78021	626.89838	1600.08276	986.01331	499.32315	1588.70752	798.85425	316.57968	1584.15283	659.14801	192.68732	1541.74939	617	203.97467	1496.14282	732.51025	56.07851	1532.33154	922.59363	1701.76624	1414.70251	NaN	NaN	NaN	NaN	NaN	NaN	NaN	NaN	NaN	NaN	NaN	NaN	NaN	NaN	NaN	NaN	NaN	NaN	NaN	NaN	NaN
